<svg xmlns="http://www.w3.org/2000/svg" width="477" height="477" viewBox="0 0 477 477">
  <g id="safetys" transform="translate(4658 313)">
    <rect id="Rectangle_1" data-name="Rectangle 1" width="477" height="477" transform="translate(-4658 -313)" fill="none"/>
    <g id="safetys-2" data-name="safetys" transform="translate(-4652.087 -301.608)">
      <g id="Group_1" data-name="Group 1" transform="translate(52.528 0)">
        <path id="Path_1" data-name="Path 1" d="M406.967,158.215a6.655,6.655,0,0,0,6.655-6.655V87.268a24.614,24.614,0,0,0-23.328-24.634c-78.929-4.019-121.35-36.3-139.611-55.18a24.524,24.524,0,0,0-35.215,0C197.206,26.336,154.785,58.614,75.855,62.634A24.613,24.613,0,0,0,52.528,87.268V272.821a150.489,150.489,0,0,0,75.038,129.962l75.294,43.463a60.57,60.57,0,0,0,60.431,0l75.3-43.463a150.492,150.492,0,0,0,75.037-129.962v-90.2a6.655,6.655,0,0,0-13.311,0v90.2a137.145,137.145,0,0,1-68.382,118.435l-75.3,43.464a47.232,47.232,0,0,1-47.119,0l-75.295-43.463A137.144,137.144,0,0,1,65.839,272.822V87.268a11.309,11.309,0,0,1,10.694-11.34c83.49-4.251,128.879-38.929,148.5-59.221a11.212,11.212,0,0,1,16.077,0C260.739,37,306.128,71.677,389.616,75.928a11.31,11.31,0,0,1,10.7,11.34v64.291a6.655,6.655,0,0,0,6.655,6.655Z" transform="translate(-52.528 0)" fill="#005892"/>
        <path id="Path_2" data-name="Path 2" d="M99.593,181.681a6.655,6.655,0,0,0-6.655,6.655v90.2a114.55,114.55,0,0,0,57.1,98.912l75.3,43.465a24.559,24.559,0,0,0,24.578,0l75.3-43.464a114.548,114.548,0,0,0,57.1-98.912V117.514a15.615,15.615,0,0,0-13.634-15.487c-59.694-7.508-98.962-30.186-121.4-47.895a15.572,15.572,0,0,0-19.314.006c-22.431,17.7-61.7,40.38-121.388,47.888a15.617,15.617,0,0,0-13.639,15.488v39.764a6.655,6.655,0,0,0,13.311,0V117.514a2.284,2.284,0,0,1,1.984-2.28c62.731-7.891,104.22-31.9,127.971-50.64a2.289,2.289,0,0,1,2.837-.006c23.758,18.75,65.247,42.756,127.984,50.647A2.284,2.284,0,0,1,369,117.514V278.539a101.2,101.2,0,0,1-50.447,87.385l-75.292,43.462a11.437,11.437,0,0,1-11.273,0L156.7,365.925a101.2,101.2,0,0,1-50.449-87.386v-90.2a6.656,6.656,0,0,0-6.656-6.655Z" transform="translate(-57.079 -5.719)" fill="#005892"/>
        <path id="Path_3" data-name="Path 3" d="M160.816,229.875a20.1,20.1,0,0,1,14.306,5.925L209.9,270.568a6.655,6.655,0,0,0,9.412,0l38.1-38.1a6.655,6.655,0,0,0-9.412-9.412L214.6,256.451l-30.07-30.062A33.546,33.546,0,1,0,137.1,273.834l53.78,53.78a33.532,33.532,0,0,0,47.441,0L345.885,220.05A33.545,33.545,0,0,0,298.452,172.6L269.958,201.1a6.655,6.655,0,0,0,9.412,9.412l28.494-28.494a20.235,20.235,0,1,1,28.613,28.621L228.9,318.21a20.219,20.219,0,0,1-28.608,0L146.508,264.42a20.236,20.236,0,0,1,14.307-34.544Z" transform="translate(-60.945 -18.332)" fill="#005892"/>
      </g>
    </g>
  </g>
</svg>
